<svg width="50" height="49" fill="none" xmlns="http://www.w3.org/2000/svg">
  <path fill-rule="evenodd" clip-rule="evenodd" d="M21.952 45.192c-3.513-1.021-5.584-4.393-8.238-6.91-2.49-2.36-5.181-4.403-6.854-7.4-1.992-3.567-5.088-7.608-3.662-11.437 1.447-3.881 7.21-3.723 10.328-6.45 3.088-2.7 3.888-7.733 7.682-9.297 3.981-1.64 8.657-.75 12.624.927 4.007 1.693 7.23 4.802 9.588 8.458 2.343 3.633 3.697 7.833 3.704 12.156.007 4.3-1.105 8.64-3.664 12.095-2.465 3.327-6.318 5.207-10.207 6.628-3.633 1.327-7.587 2.31-11.301 1.23Z" fill="#B5532C"/>
</svg>
