<svg width="234" height="221" viewBox="0 0 234 221" preserveAspectRatio="none" fill="none" xmlns="http://www.w3.org/2000/svg">
<path fill-rule="evenodd" clip-rule="evenodd" d="M103.753 214.983C86.1332 209.862 75.7469 192.95 62.4317 180.325C49.9423 168.484 36.4454 158.24 28.0564 143.212C18.0678 125.319 2.53573 105.05 9.69162 85.8474C16.9469 66.3779 45.8476 67.1735 61.4889 53.4969C76.9817 39.9502 80.9923 14.7092 100.019 6.8661C119.99 -1.36598 143.441 3.10695 163.339 11.5136C183.436 20.0042 199.605 35.5986 211.427 53.9344C223.179 72.1599 229.968 93.2207 230.004 114.906C230.04 136.472 224.466 158.243 211.629 175.572C199.267 192.259 179.941 201.687 160.435 208.814C142.214 215.47 122.38 220.398 103.753 214.983Z" fill="#B5532C"/>
<path fill-rule="evenodd" clip-rule="evenodd" d="M70.7716 191.511C59.263 190.437 47.676 195.154 36.7218 192.153C24.2495 188.736 11.918 182.919 5.69371 173.682C-0.64933 164.268 -1.72394 152.308 3.17404 142.366C7.78587 133.004 21.7587 129.611 30.8502 122.616C38.9204 116.406 43.8583 108.064 53.5763 103.583C65.1232 98.2583 78.6729 91.1567 91.2235 94.7762C103.867 98.4225 107.326 111.248 113.315 120.811C117.978 128.256 120.484 136.009 122.183 144.214C123.917 152.587 125.124 160.775 123.323 169.139C121.042 179.738 122.32 193.947 110.385 199.027C98.1727 204.226 84.5339 192.795 70.7716 191.511Z" fill="#D3AB49"/>
</svg>
