<svg width="22" height="22" viewBox="0 0 18 18" fill="none" xmlns="http://www.w3.org/2000/svg">
<path d="M6.78211 0.0395355C5.04595 0.218899 3.43982 0.985582 2.19217 2.23057C1.3276 3.09572 0.744196 4.03825 0.371659 5.1707C-0.123886 6.67593 -0.123886 8.23743 0.371659 9.74267C0.744196 10.8786 1.33112 11.8247 2.1992 12.6863C3.91428 14.392 6.25142 15.1657 8.66237 14.8246C9.90299 14.6487 11.1471 14.1388 12.1242 13.4038C12.2296 13.3229 12.3245 13.2631 12.3385 13.2666C12.3526 13.2736 13.4175 14.3146 14.7038 15.5807C16.1693 17.0227 17.0937 17.9054 17.178 17.9441C17.5224 18.1059 17.909 17.9019 17.9793 17.5221C18.0356 17.2266 18.2324 17.4376 14.3805 13.6324L13.1785 12.4436L13.3823 12.2045C14.261 11.1881 14.8409 9.90093 15.0623 8.49417C15.1466 7.94553 15.1466 6.9397 15.0623 6.38403C14.8128 4.76977 14.1063 3.38411 12.929 2.21298C11.3123 0.605757 9.05951 -0.192579 6.78211 0.0395355ZM8.46556 1.2177C9.88542 1.4252 11.1331 2.04417 12.1206 3.0289C13.3296 4.24223 13.9587 5.75098 13.9587 7.45668C13.9587 8.08621 13.9025 8.51878 13.7549 9.0639C13.0098 11.8352 10.4829 13.7519 7.57288 13.7519C5.84023 13.7519 4.23058 13.0943 3.02862 11.8915C2.21326 11.0756 1.66851 10.133 1.37329 9.03929C1.11322 8.0651 1.11322 6.84826 1.37329 5.87408C1.96373 3.6725 3.71044 1.93866 5.91403 1.36893C6.71534 1.16143 7.69588 1.10164 8.46556 1.2177Z" fill="#EEE9E6"/>
</svg>
