<svg width="43" height="41" fill="none" xmlns="http://www.w3.org/2000/svg">
  <g clip-path="url(#a)" fill-rule="evenodd" clip-rule="evenodd">
    <path d="M19.23 39.647c-3.238-.941-5.146-4.048-7.592-6.368-2.295-2.176-4.775-4.058-6.316-6.82-1.836-3.287-4.69-7.01-3.375-10.54 1.333-3.576 6.644-3.43 9.517-5.943 2.847-2.489 3.584-7.127 7.08-8.568 3.67-1.512 7.978-.69 11.634.854 3.692 1.56 6.663 4.425 8.835 7.794 2.16 3.35 3.407 7.219 3.414 11.203.006 3.962-1.018 7.963-3.377 11.147-2.27 3.066-5.822 4.798-9.406 6.107-3.347 1.223-6.992 2.129-10.414 1.134Z" fill="#B5532C"/>
    <path d="M13.17 35.334c-2.114-.198-4.243.669-6.256.117-2.291-.627-4.557-1.696-5.7-3.393C.047 30.328-.15 28.13.75 26.304c.848-1.72 3.415-2.344 5.085-3.629 1.483-1.14 2.39-2.674 4.176-3.497 2.122-.978 4.611-2.283 6.917-1.618 2.323.67 2.959 3.026 4.06 4.784.856 1.367 1.316 2.792 1.628 4.3.319 1.538.54 3.042.21 4.58-.42 1.946-.184 4.557-2.377 5.49-2.244.956-4.75-1.145-7.279-1.38Z" fill="#D3AB49"/>
  </g>
  <defs>
    <clipPath id="a">
      <path fill="#fff" d="M0 0h43v41H0z"/>
    </clipPath>
  </defs>
</svg>
